HIERARCHY
ROOT hip
{
	OFFSET 0.000000 0.000000 0.000000 
	CHANNELS 6 Xposition Yposition Zposition Zrotation Xrotation Yrotation
	JOINT abdomen
	{
		OFFSET 0.000000 3.402643 0.000000 
		CHANNELS 3 Zrotation Xrotation Yrotation
		JOINT chest
		{
			OFFSET 0.000000 8.438565 -0.680529 
			CHANNELS 3 Zrotation Xrotation Yrotation
			JOINT neck
			{
				OFFSET 0.000000 10.207942 -0.272212 
				CHANNELS 3 Zrotation Xrotation Yrotation
				JOINT head
				{
					OFFSET 0.000000 3.130431 0.000000 
					CHANNELS 3 Zrotation Xrotation Yrotation
					End Site
					{
						OFFSET 0.000000 3.130435 0.000000 
					}
				}
			}
			JOINT lCollar
			{
				OFFSET 3.470700 6.669187 -0.816635 
				CHANNELS 3 Zrotation Xrotation Yrotation
				JOINT lShldr
				{
					OFFSET 3.198488 0.000000 0.000000 
					CHANNELS 3 Zrotation Xrotation Yrotation
					JOINT lForeArm
					{
						OFFSET 10.139888 0.000000 0.000000 
						CHANNELS 3 Zrotation Xrotation Yrotation
						JOINT lHand
						{
							OFFSET 8.370511 0.000000 0.000000 
							CHANNELS 3 Zrotation Xrotation Yrotation
							End Site
							{
								OFFSET 4.083176 0.000000 0.000000 
							}
						}
					}
				}
			}
			JOINT rCollar
			{
				OFFSET -3.470700 6.669187 -0.816635 
				CHANNELS 3 Zrotation Xrotation Yrotation
				JOINT rShldr
				{
					OFFSET -3.198488 0.000000 0.000000 
					CHANNELS 3 Zrotation Xrotation Yrotation
					JOINT rForeArm
					{
						OFFSET -10.139888 0.000000 0.000000 
						CHANNELS 3 Zrotation Xrotation Yrotation
						JOINT rHand
						{
							OFFSET -8.370511 0.000000 0.000000 
							CHANNELS 3 Zrotation Xrotation Yrotation
							End Site
							{
								OFFSET -4.083176 0.000000 0.000000 
							}
						}
					}
				}
			}
		}
	}
	JOINT lThigh
	{
		OFFSET 5.308129 -1.633274 1.361059 
		CHANNELS 3 Zrotation Xrotation Yrotation
		JOINT lShin
		{
			OFFSET -2.041588 -20.007561 0.000000 
			CHANNELS 3 Zrotation Xrotation Yrotation
			JOINT lFoot
			{
				OFFSET 0.000000 -19.190928 -1.224953 
				CHANNELS 3 Zrotation Xrotation Yrotation
				End Site
				{
					OFFSET 0.000000 -2.449906 4.627600 
				}
			}
		}
	}
	JOINT rThigh
	{
		OFFSET -5.308129 -1.633274 1.361059 
		CHANNELS 3 Zrotation Xrotation Yrotation
		JOINT rShin
		{
			OFFSET 2.041588 -20.007561 0.000000 
			CHANNELS 3 Zrotation Xrotation Yrotation
			JOINT rFoot
			{
				OFFSET 0.000000 -19.190928 -1.224953 
				CHANNELS 3 Zrotation Xrotation Yrotation
				End Site
				{
					OFFSET 0.000000 -2.449906 4.627600 
				}
			}
		}
	}
}
MOTION
Frames: 13
Frame Time: 0.033333
-0.001381 48.053219 0.313914 -0.166016 0.009760 1.230497 -1.025398 -0.205044 5.543026 -2.636719 -0.029264 2.986933 -0.019531 -0.000001 1.259766 -1.213604 3.797978 8.078238 -5.199613 -0.248127 1.983994 -70.575951 16.060190 9.484719 -9.394514 3.841483 -18.458593 7.106372 -0.494419 -3.184613 5.727255 -0.246749 -2.069691 72.901413 15.725822 -10.626733 8.441255 3.503829 18.627136 -6.606235 -1.882200 4.368429 3.758520 -7.543769 0.896056 -3.031480 15.076141 -0.442473 -0.858368 -7.895206 -0.497075 -4.110977 -7.067863 -0.978792 2.874288 14.679616 0.139798 0.877445 -8.128070 -2.568000 
-0.003471 48.113190 0.347616 -0.371094 0.019535 2.705205 -2.265683 -0.409832 12.327533 -5.849612 -0.058292 6.663950 -0.039063 -0.000001 2.773438 -2.685272 8.428368 18.147778 -4.497100 -0.217195 2.015261 -67.687386 16.444044 8.402675 -10.367960 4.126615 -17.722525 8.182780 -0.982690 -2.943476 5.866471 -0.181609 -2.146897 73.049492 15.693968 -11.071979 8.613755 3.523338 17.980721 -7.202684 -4.031568 5.736698 4.047226 -7.499242 0.654718 -3.098005 14.614234 -0.135240 -0.893349 -7.594405 -2.008415 -3.771051 -6.445962 -0.528384 2.894575 13.673382 -0.285864 0.896676 -7.728942 -4.042931 
-0.003993 48.128120 0.356006 -0.537109 0.058572 4.277804 -3.496418 -0.779791 18.926960 -9.013678 -0.077156 10.192836 -0.048828 -0.000002 4.365235 -4.269327 12.982680 28.392656 -3.678074 -0.164072 2.105027 -64.763962 16.821823 7.347269 -11.335091 4.387003 -16.885807 9.068315 -1.480311 -2.684656 6.075239 -0.093300 -2.243200 73.338814 15.634546 -11.657749 9.031196 3.643448 17.224133 -7.698263 -6.282430 7.280438 4.283014 -7.706326 0.785600 -3.017455 14.599074 -0.195356 -1.261023 -7.367176 -3.617068 -3.525266 -6.119792 -0.848035 2.799294 13.265305 -0.025069 0.757165 -7.665532 -5.489914 
0.000000 48.013634 0.291666 -0.595705 0.136691 5.919401 -4.552510 -1.577040 24.122490 -11.621106 -0.086089 12.833861 -0.000000 -0.000002 5.996094 -5.895558 16.751894 37.299515 -2.829599 -0.117809 2.194586 -62.162521 17.123692 6.490021 -12.145682 4.586987 -15.914083 9.976757 -1.975280 -2.402479 6.294565 0.005715 -2.339351 73.629898 15.573125 -12.253307 9.473678 3.754932 16.428333 -8.087173 -8.584722 8.907194 4.394163 -8.663092 0.895904 -3.196885 15.839915 -0.153015 -1.152718 -7.736068 -5.260821 -3.486537 -6.621427 -0.874755 2.871963 14.407140 -0.029100 0.726387 -8.458854 -7.150677 
0.009850 47.702076 0.113339 -0.468756 0.283190 7.599971 -5.299813 -2.907460 27.024429 -13.300786 -0.057020 14.078315 0.107422 -0.000004 7.597655 -7.435770 19.165859 43.586292 -2.039860 -0.069518 2.234909 -60.158878 17.305029 5.964247 -12.697086 4.698997 -14.791537 11.153435 -2.517657 -2.141369 6.454403 0.076173 -2.435678 73.800194 15.525081 -12.758070 9.688284 3.777281 15.714127 -8.382314 -10.923386 10.502982 4.309696 -10.685291 1.154003 -3.393612 18.958124 -0.324171 -0.885216 -8.956446 -6.893250 -3.807242 -8.392390 -0.903307 3.129108 17.888718 -0.096286 0.677534 -10.287925 -8.866973 
0.020506 47.192577 -0.195618 -0.224616 0.468751 9.220590 -5.787642 -4.275052 28.014364 -14.208984 -0.018926 14.165128 0.283203 -0.000004 9.179688 -8.767352 20.229750 47.202995 -1.414985 -0.054045 2.186841 -58.719906 17.372728 5.638867 -12.988070 4.739339 -13.770356 12.819828 -3.109390 -1.895942 6.504914 0.105380 -2.493665 73.707390 15.514590 -13.062026 9.432160 3.631649 15.151888 -8.607441 -13.304727 11.967716 4.100260 -13.685017 1.366673 -3.816754 23.646088 -0.210767 -0.577955 -10.766765 -8.485454 -4.365659 -11.557302 -1.542515 3.438759 23.489157 0.129719 0.449605 -12.865185 -10.319453 
0.025324 46.500977 -0.645694 0.048831 0.654299 10.702573 -6.097700 -5.020412 27.823748 -14.658207 0.037791 13.535278 0.517578 -0.000004 10.712875 -9.822161 20.096546 48.480927 -1.042923 -0.075541 2.001622 -57.709324 17.371351 5.331729 -13.104465 4.732552 -13.117730 15.200382 -3.779024 -1.662845 6.385317 0.048715 -2.523349 73.232689 15.566043 -13.034879 8.450243 3.245320 14.836495 -8.841958 -15.686682 13.191401 3.866352 -17.423656 1.661542 -4.269197 29.457314 -0.210083 -0.118314 -12.932183 -9.793822 -5.174406 -15.318673 -2.115881 3.939853 30.247328 0.033281 0.211566 -15.893303 -11.638171 
0.017655 45.643105 -1.247373 0.292998 0.810515 11.939213 -6.298828 -4.504007 27.178082 -14.931661 0.103797 12.635101 0.820313 -0.000003 12.216800 -10.515419 18.919113 47.768570 -1.021370 -0.155908 1.630606 -57.019531 17.315619 4.838928 -13.082864 4.690504 -13.130527 18.500942 -4.514734 -1.492185 6.026853 -0.097506 -2.486189 72.234032 15.688131 -12.585458 6.522342 2.537005 14.841328 -9.164444 -18.086647 14.039853 3.706441 -21.619665 2.010875 -4.751798 35.873219 -0.168130 0.383198 -15.200804 -10.762692 -6.138563 -19.399921 -2.392452 4.579480 37.274559 -0.155193 0.201277 -18.940437 -12.955614 
-0.009148 44.634804 -2.011144 0.400439 0.888646 12.845421 -6.478801 -2.057101 26.796591 -15.341851 0.160103 11.896813 1.162109 -0.000003 13.681642 -10.810179 16.832663 45.489052 -1.449960 -0.299180 1.025073 -56.528198 17.226706 3.967298 -13.008423 4.604254 -14.091701 22.954182 -5.352920 -1.357661 5.389519 -0.373301 -2.391723 70.568146 15.905442 -11.582007 3.392727 1.383177 15.231726 -9.646901 -20.514166 14.398465 3.738731 -26.083923 2.369756 -5.435644 42.419865 0.104415 0.978666 -17.347551 -11.366002 -7.077848 -23.789564 -3.189532 5.167930 44.380539 -0.418797 0.192501 -21.615850 -13.496488 
-0.060920 43.491199 -2.927219 0.332070 0.878877 13.344504 -6.755503 2.686322 27.241911 -16.103628 0.215800 11.663863 1.552734 -0.000004 15.097654 -10.690506 13.962493 42.088684 -2.361773 -0.495526 0.175639 -56.138294 17.112656 2.605665 -12.940608 4.485580 -16.115412 28.558809 -6.257270 -1.198963 4.454948 -0.798498 -2.210230 68.133560 16.219692 -9.970990 -0.992273 -0.317641 15.984686 -10.393523 -22.969109 14.184517 4.047675 -30.553276 2.916575 -6.099871 48.639126 0.413808 1.409211 -19.052332 -11.650352 -7.900276 -28.298048 -4.124890 5.909770 50.936878 -0.797716 0.123377 -23.624556 -13.628022 
-0.140254 42.224586 -3.904714 0.126964 0.771470 13.513966 -7.169422 9.031578 28.318710 -17.041157 0.233426 11.721939 1.982421 -0.000003 16.474611 -10.150342 10.443161 38.098915 -3.583854 -0.683649 -0.779785 -55.986065 16.990347 0.867966 -12.890523 4.361901 -18.627235 34.367058 -7.102927 -0.737560 3.412599 -1.357845 -1.959880 65.013977 16.578173 -7.908859 -6.202960 -2.481203 16.928682 -11.354239 -25.424103 13.493441 4.665665 -35.055462 3.607583 -6.905318 54.753361 0.810148 1.919005 -20.558178 -11.543056 -8.489805 -32.324520 -4.797266 6.694193 56.975670 -1.228204 0.086382 -25.441587 -13.765875 
-0.248930 40.846542 -4.832475 -0.146492 0.605458 13.429256 -7.774802 16.030886 29.638506 -17.910273 0.213727 11.765295 2.441407 -0.000003 17.792974 -9.178300 6.373116 34.024010 -4.860869 -0.843550 -1.683618 -56.210022 16.842695 -1.081556 -12.841416 4.242217 -20.860508 39.219784 -7.714177 0.374762 2.500328 -2.037031 -1.669317 61.326824 16.894701 -5.624334 -11.711947 -4.854799 17.852867 -12.369826 -27.858944 12.578048 5.249024 -39.617401 4.325017 -7.762210 60.482185 1.357476 2.506930 -21.577257 -11.070521 -9.016555 -36.624874 -5.678275 7.563963 62.820110 -1.721979 -0.092435 -26.910753 -13.763405 
-0.388730 39.368656 -5.599338 -0.410165 0.380838 13.205795 -8.548100 22.720306 30.803282 -18.476624 0.148196 11.475300 2.919922 -0.000005 19.062346 -7.728783 1.877333 30.448732 -5.963135 -0.963266 -2.380157 -56.970200 16.676104 -3.068627 -12.741312 4.146723 -22.102858 41.947781 -7.961166 2.421175 1.965899 -2.801256 -1.348430 57.189644 17.120781 -3.321157 -16.997486 -7.166231 18.637646 -13.312402 -30.199070 11.596785 6.358925 -43.880295 5.278338 -9.184674 66.697983 2.308895 2.939167 -23.359776 -10.519105 -9.482417 -40.773701 -6.582217 8.800261 68.647446 -2.563699 -0.484548 -28.348543 -13.837352 
